<svg width="26" height="31" viewBox="0 0 26 31" fill="none" xmlns="http://www.w3.org/2000/svg">
<path d="M13 3C10.6139 3.00295 8.32637 3.99726 6.63915 5.76482C4.95194 7.53238 4.00282 9.92886 4.00001 12.4286C3.99715 14.4713 4.63408 16.4587 5.8131 18.0857C5.8131 18.0857 6.05855 18.4243 6.09864 18.4731L13 27L19.9046 18.4689C19.9406 18.4234 20.1869 18.0857 20.1869 18.0857L20.1877 18.0831C21.3661 16.4568 22.0028 14.4704 22 12.4286C21.9972 9.92886 21.0481 7.53238 19.3608 5.76482C17.6736 3.99726 15.3861 3.00295 13 3V3ZM13 15.8571C12.3527 15.8571 11.72 15.6561 11.1818 15.2793C10.6436 14.9026 10.2241 14.3671 9.9764 13.7406C9.72869 13.1141 9.66388 12.4248 9.79016 11.7597C9.91644 11.0946 10.2281 10.4837 10.6858 10.0042C11.1435 9.52471 11.7267 9.19817 12.3615 9.06588C12.9964 8.93359 13.6544 9.00148 14.2524 9.26098C14.8504 9.52048 15.3616 9.95993 15.7212 10.5238C16.0808 11.0876 16.2727 11.7505 16.2727 12.4286C16.2716 13.3375 15.9265 14.2089 15.313 14.8517C14.6994 15.4944 13.8676 15.856 13 15.8571V15.8571Z" fill="#263057"/>
<path d="M13 16C15.2091 16 17 14.2091 17 12C17 9.79086 15.2091 8 13 8C10.7909 8 9 9.79086 9 12C9 14.2091 10.7909 16 13 16Z" fill="white"/>
</svg>
